<?xml version="1.0" encoding="UTF-8"?>
<svg id="Layer_2" data-name="Layer 2" xmlns="http://www.w3.org/2000/svg" viewBox="0 0 152.83 83.18">
  <defs>
    <style>
      .cls-1 {
        fill: #1c75bc;
      }
    </style>
  </defs>
  <g id="Layer_2-2" data-name="Layer 2">
    <g id="Layer_1-2" data-name="Layer 1-2">
      <path class="cls-1" d="M117.36,9.59h15.32v72.1h-15.32c-.09-1.3-.18-2.6-.27-3.94-.37.33-.74.66-1.13,1-4.55,3.73-10.15,4.87-15.85,4.29-6.31-.83-11.58-4.2-15.65-9.19-4.66-6.36-6.5-14.28-5.54-22.17.77-5.33,2.71-10.4,6.16-14.5.16-.21.32-.41.49-.63,3.31-4.1,8.55-7.23,13.73-7.82,5.46-.4,10.67-.19,15.32,3.1.81.75,1.63,1.5,2.46,2.25.09-8.09.18-16.25.27-24.5h.01ZM96.74,47.32c-2.53,3.33-2.96,6.92-2.63,11,.52,3.21,2.04,5.88,4.57,7.87,3.07,2.01,6.52,2.5,10.07,1.8,3.12-.87,5.56-2.58,7.25-5.45,1.65-3.52,1.96-7.54.92-11.32-1.04-2.94-3.21-5.46-5.97-6.81-4.93-1.99-10.51-1.16-14.22,2.91h0Z"/>
      <path class="cls-1" d="M3.83,65.36h61c-.97,5.51-2.48,10.91-3.83,16.34H0c.21-1.69.41-2.93.6-3.71.06-.26.13-.52.2-.79.07-.28.14-.55.21-.83.07-.29.14-.58.22-.87.23-.92.46-1.83.69-2.75.15-.62.31-1.24.46-1.86.15-.59.29-1.18.44-1.77.07-.28.14-.56.21-.84.06-.26.13-.52.2-.78.06-.23.12-.46.17-.69.13-.48.28-.96.43-1.43v-.02Z"/>
      <path class="cls-1" d="M10.67,37.47h61c-.97,5.51-2.48,10.91-3.83,16.34H6.84c.67-5.56,2.46-10.91,3.83-16.34Z"/>
      <path class="cls-1" d="M17.51,9.59h61c-.96,5.42-2.48,10.72-3.83,16.05H13.68c.96-5.42,2.48-10.72,3.83-16.05Z"/>
      <path class="cls-1" d="M143.25,0h2.19c.41,1.11.82,2.23,1.23,3.34.12.32.23.64.36.96.11.3.22.61.34.92.1.28.21.56.31.85.15.45.23.87.23,1.25h.55c.02-.22.04-.44.07-.66.28-1.39.79-2.64,1.32-3.95.1-.26.21-.52.31-.79.25-.64.51-1.28.76-1.92h1.91v9.58h-1.37c-.09-1.95-.18-3.9-.27-5.91-.72,1.95-1.44,3.9-2.19,5.91h-1.64c-.81-2.14-1.62-4.28-2.46-6.48-.09,2.14-.18,4.28-.27,6.48h-1.37V0h-.01Z"/>
      <path class="cls-1" d="M134.77,0h7.66v1.13h-3.28v8.45h-1.37V1.13h-3.01V0Z"/>
    </g>
  </g>
</svg>