<?xml version="1.0" encoding="UTF-8"?>
<svg id="Layer_2" data-name="Layer 2" xmlns="http://www.w3.org/2000/svg" viewBox="0 0 81.22 22.65">
  <defs>
    <style>
      .cls-1 {
        fill: #f8f8f8;
      }
    </style>
  </defs>
  <g id="Layer_1-2" data-name="Layer 1">
    <g>
      <path class="cls-1" d="M10.08,11.69h-3.32v-2.53h6.3c.02,1.02.01,2-.25,2.99-1.45,5.38-9.08,5.63-11.82,1.21C-1.18,9.89.38,5.22,4.21,3.78c2.79-1.05,6.32-.18,7.9,2.44l-2.36,1.36c-.08,0-.44-.46-.56-.56-.96-.85-2.57-1.08-3.78-.7-3.4,1.06-3.4,6.24.12,7.18,1.7.46,3.97.08,4.55-1.8Z"/>
      <path class="cls-1" d="M41.53,3.62v12.59h-2.68v-.79l-.98.68c-4.08,1.67-7.24-2.73-5.62-6.46,1.14-2.64,4.42-3.66,6.61-1.6V3.62h2.68ZM36.65,9.48c-2.93.02-2.84,4.57.14,4.44,2.78-.12,2.73-4.47-.14-4.44Z"/>
      <path class="cls-1" d="M77.89,3.62v12.59h-2.68v-.79c-.2.05-.31.26-.48.39-1.37,1.03-3.41.79-4.72-.22-2.38-1.83-2.38-5.76-.1-7.68,1.5-1.26,3.92-1.33,5.31.12V3.62h2.68ZM73.07,9.48c-2.85,0-2.9,4.28-.16,4.44,3.02.18,3.12-4.44.16-4.44Z"/>
      <path class="cls-1" d="M27.59,8.03v-.84h2.68v9.02h-2.68v-.84c-1.44,1.52-3.92,1.4-5.43.05-2.37-2.1-2.06-6.41.77-7.96,1.51-.83,3.44-.67,4.66.57ZM25.39,9.48c-2.92.02-2.83,4.57.14,4.44,2.79-.12,2.74-4.47-.14-4.44Z"/>
      <path class="cls-1" d="M52.35,12.78h-6.4c.42,1.36,2.32,1.57,3.42.97.2-.11.33-.25.51-.37l2.12,1.26c-1.28,1.74-3.64,2.16-5.64,1.57-4.72-1.38-4.24-8.54.76-9.22,3.48-.48,5.89,2.46,5.23,5.79ZM49.77,10.75c-.41-1.91-3.46-1.92-3.87,0h3.87Z"/>
      <path class="cls-1" d="M20,7.04v3.02c-.97-.15-2.13.19-2.54,1.16-.08.18-.19.62-.19.8v4.19h-2.68V7.19h2.68v1.54c.14.03.08-.04.11-.11.53-1.09,1.39-1.57,2.62-1.58Z"/>
      <polygon class="cls-1" points="68.07 3.62 67.38 6.39 56.41 6.39 57.13 3.62 68.07 3.62"/>
      <polygon class="cls-1" points="66.83 8.52 66.14 11.3 55.17 11.3 55.89 8.52 66.83 8.52"/>
      <polygon class="cls-1" points="65.59 13.43 64.9 16.2 53.93 16.2 54.65 13.43 65.59 13.43"/>
      <polygon class="cls-1" points="32.5 19.42 33.08 19.47 34.79 22 34.79 19.42 35.23 19.42 35.23 22.55 34.65 22.54 32.9 19.97 32.9 22.55 32.5 22.55 32.5 19.42"/>
      <path class="cls-1" d="M8.38,19.34c2.39-.33,2.55,3.24.33,3.31s-2.32-3.04-.33-3.31ZM8.33,19.73c-1.17.2-1.2,2.29.05,2.5,1.93.33,2-2.85-.05-2.5Z"/>
      <path class="cls-1" d="M40.44,21.16h-.69v-.35h1.14v1.51c-1.41.77-3.11.11-2.87-1.68.17-1.27,1.86-1.73,2.77-.94l-.28.32c-1.18-.92-2.64.35-1.89,1.65.36.63,1.22.74,1.83.41v-.92Z"/>
      <polygon class="cls-1" points="24.07 19.42 24.07 20.71 25.71 20.71 25.71 19.42 26.15 19.42 26.15 22.55 25.71 22.55 25.71 21.11 24.07 21.11 24.07 22.55 23.62 22.55 23.62 19.42 24.07 19.42"/>
      <path class="cls-1" d="M15.79,22.55h-.49s-.3-.76-.3-.76l-1.51-.03-.34.79h-.49s1.39-3.09,1.39-3.09l.42.03,1.31,3.07ZM14.84,21.41l-.62-1.44-.62,1.44h1.24Z"/>
      <path class="cls-1" d="M58.34,19.43l1.3,3.12h-.49s-.34-.78-.34-.78c-.42.02-.93-.06-1.33-.01-.09.01-.11,0-.17.08-.26.33-.07.87-.75.71l1.33-3.09.45-.03ZM57.51,21.41h1.19l-.57-1.44c-.1-.02-.07.04-.1.1-.2.43-.37.9-.52,1.34Z"/>
      <polygon class="cls-1" points="73.53 19.42 73.53 19.77 71.89 19.77 71.89 20.76 73.38 20.76 73.38 21.11 71.89 21.11 71.89 22.15 73.58 22.15 73.58 22.55 71.5 22.55 71.5 19.42 73.53 19.42"/>
      <path class="cls-1" d="M62.29,20.84c-.07-.08-.17-.27-.19-.38-.2-.93.71-1.31,1.49-1.09.44.12.58.35.1.58-.31-.39-1.15-.36-1.17.23-.02.73,1.38.45,1.53,1.25.23,1.23-1.37,1.56-2.07.78l.32-.27c.17.08.23.21.43.27.47.12,1.04-.13.87-.67-.09-.31-1.04-.4-1.31-.7Z"/>
      <path class="cls-1" d="M76.11,22.15l.35-.25c.27.57,1.45.42,1.28-.31-.11-.5-1.4-.32-1.52-1.15s.59-1.22,1.35-1.1c.12.02.61.21.58.35l-.32.27c-.34-.47-1.39-.26-1.18.39.2.59,1.61.28,1.55,1.38-.05.89-1.15,1.12-1.82.73-.06-.04-.31-.23-.26-.31Z"/>
      <path class="cls-1" d="M67.51,19.34c.38-.05.86,0,1.1.32l-.27.31c-.38-.45-1.47-.27-1.18.44.18.44,1.28.34,1.46.92.41,1.27-1.32,1.73-2.04.9l.33-.27c.33.29.83.45,1.18.09.68-.69-.7-.88-1.04-1.1-.72-.48-.37-1.49.45-1.61Z"/>
      <path class="cls-1" d="M4.47,19.82l-.37.24c-.48-.56-1.38-.42-1.75.19-.56.92.05,2.18,1.19,1.99.28-.05.42-.24.65-.38l.33.19c-.55.83-1.89.74-2.47-.03-1.24-1.64.95-3.69,2.42-2.2Z"/>
      <path class="cls-1" d="M19.49,19.34c.52-.07,1.06.04,1.4.46l-.32.27c-.58-.67-1.72-.34-1.93.51-.32,1.32.98,2.26,1.98,1.28l.32.22c-.47.69-1.52.72-2.16.22-1.08-.86-.71-2.77.71-2.96Z"/>
      <path class="cls-1" d="M48.37,19.34c.5-.06,1.03.05,1.35.46l-.32.26c-.55-.6-1.53-.41-1.85.34-.56,1.32.85,2.5,1.91,1.46l.31.22c-.48.72-1.56.7-2.18.19-1.06-.87-.64-2.76.78-2.93Z"/>
      <polygon class="cls-1" points="52.89 19.42 52.89 22.15 54.33 22.15 54.33 22.55 52.5 22.55 52.5 19.42 52.89 19.42"/>
      <rect class="cls-1" x="29.08" y="19.42" width=".45" height="3.12"/>
      <path class="cls-1" d="M79.53,0h.29s.5,1.44.5,1.44c.07-.01.1-.09.12-.15.19-.39.3-.88.48-1.28h.29s0,1.68,0,1.68h-.2V.25l-.57,1.44-.18-.03-.54-1.41v1.44h-.2V0Z"/>
      <polygon class="cls-1" points="79.28 0 79.28 .15 78.74 .15 78.74 1.68 78.54 1.68 78.54 .15 77.99 .15 77.99 0 79.28 0"/>
    </g>
  </g>
</svg>